<mxfile host="app.diagrams.net" agent="Mozilla/5.0 (Windows NT 10.0; Win64; x64; rv:138.0) Gecko/20100101 Firefox/138.0" version="26.2.14" pages="2">
  <diagram name="Page-1" id="HQIzRcc-VsgBWAM_Dd9I">
    <mxGraphModel dx="1426" dy="871" grid="1" gridSize="10" guides="1" tooltips="1" connect="1" arrows="1" fold="1" page="1" pageScale="1" pageWidth="3300" pageHeight="4681" math="0" shadow="0">
      <root>
        <mxCell id="0" />
        <mxCell id="1" parent="0" />
        <mxCell id="RnQGSPWUwa8BTYHCsOwo-42" value="2a Classification" style="text;html=1;align=left;verticalAlign=top;whiteSpace=wrap;rounded=0;dashed=1;fillColor=#f5f5f5;fontColor=#333333;strokeColor=#666666;strokeWidth=2;" name="text" vertex="1" parent="1">
          <mxGeometry x="1030" y="470" width="190" height="325" as="geometry" />
        </mxCell>
        <mxCell id="RnQGSPWUwa8BTYHCsOwo-41" value="1d Memory Cell Update" style="text;html=1;align=left;verticalAlign=top;whiteSpace=wrap;rounded=0;dashed=1;fillColor=#f5f5f5;fontColor=#333333;strokeColor=#666666;strokeWidth=2;" name="text" vertex="1" parent="1">
          <mxGeometry x="470" y="680" width="550" height="110" as="geometry" />
        </mxCell>
        <mxCell id="RnQGSPWUwa8BTYHCsOwo-40" value="2a Competition and Selection" style="text;html=1;align=left;verticalAlign=top;whiteSpace=wrap;rounded=0;dashed=1;fillColor=#f5f5f5;fontColor=#333333;strokeColor=#666666;strokeWidth=2;" name="text" vertex="1" parent="1">
          <mxGeometry x="220" y="550" width="240" height="240" as="geometry" />
        </mxCell>
        <mxCell id="RnQGSPWUwa8BTYHCsOwo-39" value="1d Antigenic Presentation" style="text;html=1;align=left;verticalAlign=top;whiteSpace=wrap;rounded=0;dashed=1;fillColor=#f5f5f5;fontColor=#333333;strokeColor=#666666;strokeWidth=2;" name="text" vertex="1" parent="1">
          <mxGeometry x="470" y="550" width="350" height="110" as="geometry" />
        </mxCell>
        <mxCell id="RnQGSPWUwa8BTYHCsOwo-38" value="1d Fuzzy Weighted Pre-processing" style="text;html=1;align=left;verticalAlign=top;whiteSpace=wrap;rounded=0;dashed=1;fillColor=#f5f5f5;fontColor=#333333;strokeColor=#666666;strokeWidth=2;" name="text" vertex="1" parent="1">
          <mxGeometry x="830" y="360" width="190" height="300" as="geometry" />
        </mxCell>
        <mxCell id="RnQGSPWUwa8BTYHCsOwo-33" value="1d C4.5 Feature Selection and Processing" style="text;html=1;align=left;verticalAlign=top;whiteSpace=wrap;rounded=0;dashed=1;fillColor=#f5f5f5;fontColor=#333333;strokeColor=#666666;strokeWidth=2;" name="text" vertex="1" parent="1">
          <mxGeometry x="470" y="360" width="350" height="110" as="geometry" />
        </mxCell>
        <mxCell id="RnQGSPWUwa8BTYHCsOwo-36" style="edgeStyle=orthogonalEdgeStyle;rounded=0;orthogonalLoop=1;jettySize=auto;html=1;exitX=1;exitY=0.5;exitDx=0;exitDy=0;entryX=0;entryY=0.5;entryDx=0;entryDy=0;" edge="1" parent="1" source="RnQGSPWUwa8BTYHCsOwo-2" target="RnQGSPWUwa8BTYHCsOwo-4">
          <mxGeometry relative="1" as="geometry" />
        </mxCell>
        <mxCell id="RnQGSPWUwa8BTYHCsOwo-2" value="data&#xa;Raw Patient&#xa;Records" style="rectangle;fillColor=#fff2cc;strokeColor=#d6b656;" name="data" vertex="1" parent="1">
          <mxGeometry x="420" y="390" width="100" height="50" as="geometry" />
        </mxCell>
        <mxCell id="RnQGSPWUwa8BTYHCsOwo-3" style="edgeStyle=orthogonalEdgeStyle;rounded=0;orthogonalLoop=1;jettySize=auto;html=1;exitX=1;exitY=0.5;exitDx=0;exitDy=0;" edge="1" source="RnQGSPWUwa8BTYHCsOwo-4" target="RnQGSPWUwa8BTYHCsOwo-5" parent="1">
          <mxGeometry relative="1" as="geometry" />
        </mxCell>
        <mxCell id="RnQGSPWUwa8BTYHCsOwo-4" value="transform:embed" style="rounded=1;whiteSpace=wrap;html=1;arcSize=50;fillColor=#f8cecc;strokeColor=#b85450;" name="transform" vertex="1" parent="1">
          <mxGeometry x="600" y="390" width="100" height="50" as="geometry" />
        </mxCell>
        <mxCell id="RnQGSPWUwa8BTYHCsOwo-8" style="edgeStyle=orthogonalEdgeStyle;rounded=0;orthogonalLoop=1;jettySize=auto;html=1;exitX=1;exitY=0.5;exitDx=0;exitDy=0;entryX=0.5;entryY=0;entryDx=0;entryDy=0;" edge="1" parent="1" source="RnQGSPWUwa8BTYHCsOwo-5" target="RnQGSPWUwa8BTYHCsOwo-7">
          <mxGeometry relative="1" as="geometry" />
        </mxCell>
        <mxCell id="RnQGSPWUwa8BTYHCsOwo-5" value="data&#xa;Reduced Dataset" style="rectangle;fillColor=#fff2cc;strokeColor=#d6b656;" name="data" vertex="1" parent="1">
          <mxGeometry x="780" y="390" width="100" height="50" as="geometry" />
        </mxCell>
        <mxCell id="RnQGSPWUwa8BTYHCsOwo-10" style="edgeStyle=orthogonalEdgeStyle;rounded=0;orthogonalLoop=1;jettySize=auto;html=1;exitX=0.5;exitY=1;exitDx=0;exitDy=0;entryX=1;entryY=0.5;entryDx=0;entryDy=0;" edge="1" parent="1" source="RnQGSPWUwa8BTYHCsOwo-7" target="RnQGSPWUwa8BTYHCsOwo-9">
          <mxGeometry relative="1" as="geometry" />
        </mxCell>
        <mxCell id="RnQGSPWUwa8BTYHCsOwo-7" value="transform:embed" style="rounded=1;whiteSpace=wrap;html=1;arcSize=50;fillColor=#f8cecc;strokeColor=#b85450;" name="transform" vertex="1" parent="1">
          <mxGeometry x="910" y="490" width="100" height="50" as="geometry" />
        </mxCell>
        <mxCell id="RnQGSPWUwa8BTYHCsOwo-13" style="edgeStyle=orthogonalEdgeStyle;rounded=0;orthogonalLoop=1;jettySize=auto;html=1;exitX=0;exitY=0.5;exitDx=0;exitDy=0;entryX=1;entryY=0.5;entryDx=0;entryDy=0;" edge="1" parent="1" source="RnQGSPWUwa8BTYHCsOwo-9" target="RnQGSPWUwa8BTYHCsOwo-12">
          <mxGeometry relative="1" as="geometry" />
        </mxCell>
        <mxCell id="RnQGSPWUwa8BTYHCsOwo-9" value="data&#xa;Weighted Dataset" style="rectangle;fillColor=#fff2cc;strokeColor=#d6b656;" name="data" vertex="1" parent="1">
          <mxGeometry x="780" y="590" width="100" height="50" as="geometry" />
        </mxCell>
        <mxCell id="RnQGSPWUwa8BTYHCsOwo-20" style="edgeStyle=orthogonalEdgeStyle;rounded=0;orthogonalLoop=1;jettySize=auto;html=1;exitX=0;exitY=0.5;exitDx=0;exitDy=0;entryX=1;entryY=0.5;entryDx=0;entryDy=0;" edge="1" parent="1" source="RnQGSPWUwa8BTYHCsOwo-12" target="RnQGSPWUwa8BTYHCsOwo-14">
          <mxGeometry relative="1" as="geometry" />
        </mxCell>
        <mxCell id="RnQGSPWUwa8BTYHCsOwo-12" value="transform" style="rounded=1;whiteSpace=wrap;html=1;arcSize=50;fillColor=#f8cecc;strokeColor=#b85450;" name="transform" vertex="1" parent="1">
          <mxGeometry x="600" y="590" width="100" height="50" as="geometry" />
        </mxCell>
        <mxCell id="RnQGSPWUwa8BTYHCsOwo-17" style="edgeStyle=orthogonalEdgeStyle;rounded=0;orthogonalLoop=1;jettySize=auto;html=1;exitX=0.5;exitY=1;exitDx=0;exitDy=0;entryX=0.5;entryY=0;entryDx=0;entryDy=0;" edge="1" parent="1" source="RnQGSPWUwa8BTYHCsOwo-14" target="RnQGSPWUwa8BTYHCsOwo-16">
          <mxGeometry relative="1" as="geometry" />
        </mxCell>
        <mxCell id="RnQGSPWUwa8BTYHCsOwo-14" value="data&#xa;ARB Pool" style="rectangle;fillColor=#fff2cc;strokeColor=#d6b656;" name="data" vertex="1" parent="1">
          <mxGeometry x="240" y="590" width="100" height="50" as="geometry" />
        </mxCell>
        <mxCell id="RnQGSPWUwa8BTYHCsOwo-16" value="infer:deduce" style="rounded=1;whiteSpace=wrap;html=1;arcSize=50;fillColor=#bac8d3;strokeColor=#23445d;" name="infer:deduce" vertex="1" parent="1">
          <mxGeometry x="240" y="720" width="100" height="50" as="geometry" />
        </mxCell>
        <mxCell id="RnQGSPWUwa8BTYHCsOwo-24" style="edgeStyle=orthogonalEdgeStyle;rounded=0;orthogonalLoop=1;jettySize=auto;html=1;exitX=1;exitY=0.5;exitDx=0;exitDy=0;entryX=0;entryY=0.5;entryDx=0;entryDy=0;" edge="1" parent="1" source="RnQGSPWUwa8BTYHCsOwo-18" target="RnQGSPWUwa8BTYHCsOwo-23">
          <mxGeometry relative="1" as="geometry" />
        </mxCell>
        <mxCell id="RnQGSPWUwa8BTYHCsOwo-18" value="data&#xa;Refined ARB Pool" style="rectangle;fillColor=#fff2cc;strokeColor=#d6b656;" name="data" vertex="1" parent="1">
          <mxGeometry x="420" y="720" width="100" height="50" as="geometry" />
        </mxCell>
        <mxCell id="RnQGSPWUwa8BTYHCsOwo-22" value="&lt;div&gt;error&lt;/div&gt;&lt;div&gt;--&amp;gt;&lt;/div&gt;" style="text;html=1;align=center;verticalAlign=middle;whiteSpace=wrap;rounded=0;dashed=1;fillColor=#f5f5f5;fontColor=#333333;strokeColor=#666666;strokeWidth=2;" name="text" vertex="1" parent="1">
          <mxGeometry x="340" y="727.5" width="80" height="35" as="geometry" />
        </mxCell>
        <mxCell id="RnQGSPWUwa8BTYHCsOwo-28" style="edgeStyle=orthogonalEdgeStyle;rounded=0;orthogonalLoop=1;jettySize=auto;html=1;exitX=1;exitY=0.5;exitDx=0;exitDy=0;entryX=0;entryY=0.5;entryDx=0;entryDy=0;" edge="1" parent="1" source="RnQGSPWUwa8BTYHCsOwo-23" target="RnQGSPWUwa8BTYHCsOwo-27">
          <mxGeometry relative="1" as="geometry" />
        </mxCell>
        <mxCell id="RnQGSPWUwa8BTYHCsOwo-23" value="transform" style="rounded=1;whiteSpace=wrap;html=1;arcSize=50;fillColor=#f8cecc;strokeColor=#b85450;" name="transform" vertex="1" parent="1">
          <mxGeometry x="780" y="720" width="100" height="50" as="geometry" />
        </mxCell>
        <mxCell id="RnQGSPWUwa8BTYHCsOwo-30" style="edgeStyle=orthogonalEdgeStyle;rounded=0;orthogonalLoop=1;jettySize=auto;html=1;exitX=1;exitY=0.5;exitDx=0;exitDy=0;entryX=0.5;entryY=1;entryDx=0;entryDy=0;" edge="1" parent="1" source="RnQGSPWUwa8BTYHCsOwo-27" target="RnQGSPWUwa8BTYHCsOwo-29">
          <mxGeometry relative="1" as="geometry" />
        </mxCell>
        <mxCell id="RnQGSPWUwa8BTYHCsOwo-27" value="data&#xa;Memory Pool" style="rectangle;fillColor=#fff2cc;strokeColor=#d6b656;" name="data" vertex="1" parent="1">
          <mxGeometry x="960" y="720" width="100" height="50" as="geometry" />
        </mxCell>
        <mxCell id="RnQGSPWUwa8BTYHCsOwo-32" style="edgeStyle=orthogonalEdgeStyle;rounded=0;orthogonalLoop=1;jettySize=auto;html=1;exitX=0.5;exitY=0;exitDx=0;exitDy=0;entryX=0.5;entryY=1;entryDx=0;entryDy=0;" edge="1" parent="1" source="RnQGSPWUwa8BTYHCsOwo-29" target="RnQGSPWUwa8BTYHCsOwo-31">
          <mxGeometry relative="1" as="geometry" />
        </mxCell>
        <mxCell id="RnQGSPWUwa8BTYHCsOwo-29" value="infer:deduce" style="rounded=1;whiteSpace=wrap;html=1;arcSize=50;fillColor=#bac8d3;strokeColor=#23445d;" name="infer:deduce" vertex="1" parent="1">
          <mxGeometry x="1080" y="620" width="100" height="50" as="geometry" />
        </mxCell>
        <mxCell id="RnQGSPWUwa8BTYHCsOwo-31" value="symbol&#xa;Patient Record&#xa;Classification" style="rectangle;fillColor=#dae8fc;strokeColor=#6c8ebf;" name="symbol" vertex="1" parent="1">
          <mxGeometry x="1080" y="500" width="100" height="50" as="geometry" />
        </mxCell>
        <mxCell id="SFR187uQTxrCspWMHPLH-1" value="error" style="text;html=1;align=center;verticalAlign=middle;whiteSpace=wrap;rounded=0;dashed=1;fillColor=#f5f5f5;fontColor=#333333;strokeColor=#666666;strokeWidth=2;" name="text" vertex="1" parent="1">
          <mxGeometry x="1140" y="697.5" width="40" height="30" as="geometry" />
        </mxCell>
        <mxCell id="SFR187uQTxrCspWMHPLH-2" value="error" style="text;html=1;align=center;verticalAlign=middle;whiteSpace=wrap;rounded=0;dashed=1;fillColor=#f5f5f5;fontColor=#333333;strokeColor=#666666;strokeWidth=2;" name="text" vertex="1" parent="1">
          <mxGeometry x="1140" y="570" width="40" height="30" as="geometry" />
        </mxCell>
      </root>
    </mxGraphModel>
  </diagram>
  <diagram id="EQ5-NzDT2akJMeQuOSzV" name="Page-2">
    <mxGraphModel dx="1426" dy="871" grid="1" gridSize="10" guides="1" tooltips="1" connect="1" arrows="1" fold="1" page="1" pageScale="1" pageWidth="3300" pageHeight="4681" math="0" shadow="0">
      <root>
        <mxCell id="0" />
        <mxCell id="1" parent="0" />
        <mxCell id="3FXCNl-wQKIiIdB1zGO7-1" value="2a Classification" style="text;html=1;align=left;verticalAlign=top;whiteSpace=wrap;rounded=0;dashed=1;fillColor=#f5f5f5;fontColor=#333333;strokeColor=#666666;strokeWidth=2;" name="text" vertex="1" parent="1">
          <mxGeometry x="1030" y="470" width="190" height="325" as="geometry" />
        </mxCell>
        <mxCell id="3FXCNl-wQKIiIdB1zGO7-2" value="1d Memory Cell Update" style="text;html=1;align=left;verticalAlign=top;whiteSpace=wrap;rounded=0;dashed=1;fillColor=#f5f5f5;fontColor=#333333;strokeColor=#666666;strokeWidth=2;" name="text" vertex="1" parent="1">
          <mxGeometry x="470" y="680" width="550" height="110" as="geometry" />
        </mxCell>
        <mxCell id="3FXCNl-wQKIiIdB1zGO7-3" value="2a Competition and Selection" style="text;html=1;align=left;verticalAlign=top;whiteSpace=wrap;rounded=0;dashed=1;fillColor=#f5f5f5;fontColor=#333333;strokeColor=#666666;strokeWidth=2;" name="text" vertex="1" parent="1">
          <mxGeometry x="220" y="550" width="240" height="240" as="geometry" />
        </mxCell>
        <mxCell id="3FXCNl-wQKIiIdB1zGO7-4" value="1d Antigenic Presentation" style="text;html=1;align=left;verticalAlign=top;whiteSpace=wrap;rounded=0;dashed=1;fillColor=#f5f5f5;fontColor=#333333;strokeColor=#666666;strokeWidth=2;" name="text" vertex="1" parent="1">
          <mxGeometry x="470" y="550" width="350" height="110" as="geometry" />
        </mxCell>
        <mxCell id="3FXCNl-wQKIiIdB1zGO7-5" value="1d Fuzzy Weighted Pre-processing" style="text;html=1;align=left;verticalAlign=top;whiteSpace=wrap;rounded=0;dashed=1;fillColor=#f5f5f5;fontColor=#333333;strokeColor=#666666;strokeWidth=2;" name="text" vertex="1" parent="1">
          <mxGeometry x="830" y="360" width="190" height="300" as="geometry" />
        </mxCell>
        <mxCell id="3FXCNl-wQKIiIdB1zGO7-6" value="1d C4.5 Feature Selection and Processing" style="text;html=1;align=left;verticalAlign=top;whiteSpace=wrap;rounded=0;dashed=1;fillColor=#f5f5f5;fontColor=#333333;strokeColor=#666666;strokeWidth=2;" name="text" vertex="1" parent="1">
          <mxGeometry x="470" y="360" width="350" height="110" as="geometry" />
        </mxCell>
        <mxCell id="3FXCNl-wQKIiIdB1zGO7-7" style="edgeStyle=orthogonalEdgeStyle;rounded=0;orthogonalLoop=1;jettySize=auto;html=1;exitX=1;exitY=0.5;exitDx=0;exitDy=0;entryX=0;entryY=0.5;entryDx=0;entryDy=0;" edge="1" parent="1" source="3FXCNl-wQKIiIdB1zGO7-8" target="3FXCNl-wQKIiIdB1zGO7-10">
          <mxGeometry relative="1" as="geometry" />
        </mxCell>
        <mxCell id="3FXCNl-wQKIiIdB1zGO7-8" value="data&#xa;Raw Patient&#xa;Records" style="rectangle;fillColor=#fff2cc;strokeColor=#d6b656;" name="data" vertex="1" parent="1">
          <mxGeometry x="420" y="390" width="100" height="50" as="geometry" />
        </mxCell>
        <mxCell id="3FXCNl-wQKIiIdB1zGO7-9" style="edgeStyle=orthogonalEdgeStyle;rounded=0;orthogonalLoop=1;jettySize=auto;html=1;exitX=1;exitY=0.5;exitDx=0;exitDy=0;" edge="1" parent="1" source="3FXCNl-wQKIiIdB1zGO7-10" target="3FXCNl-wQKIiIdB1zGO7-12">
          <mxGeometry relative="1" as="geometry" />
        </mxCell>
        <mxCell id="3FXCNl-wQKIiIdB1zGO7-10" value="transform:embed" style="rounded=1;whiteSpace=wrap;html=1;arcSize=50;fillColor=#f8cecc;strokeColor=#b85450;" name="transform" vertex="1" parent="1">
          <mxGeometry x="600" y="390" width="100" height="50" as="geometry" />
        </mxCell>
        <mxCell id="3FXCNl-wQKIiIdB1zGO7-11" style="edgeStyle=orthogonalEdgeStyle;rounded=0;orthogonalLoop=1;jettySize=auto;html=1;exitX=1;exitY=0.5;exitDx=0;exitDy=0;entryX=0.5;entryY=0;entryDx=0;entryDy=0;" edge="1" parent="1" source="3FXCNl-wQKIiIdB1zGO7-12" target="3FXCNl-wQKIiIdB1zGO7-14">
          <mxGeometry relative="1" as="geometry" />
        </mxCell>
        <mxCell id="3FXCNl-wQKIiIdB1zGO7-12" value="data&#xa;Reduced Dataset" style="rectangle;fillColor=#fff2cc;strokeColor=#d6b656;" name="data" vertex="1" parent="1">
          <mxGeometry x="780" y="390" width="100" height="50" as="geometry" />
        </mxCell>
        <mxCell id="3FXCNl-wQKIiIdB1zGO7-13" style="edgeStyle=orthogonalEdgeStyle;rounded=0;orthogonalLoop=1;jettySize=auto;html=1;exitX=0.5;exitY=1;exitDx=0;exitDy=0;entryX=1;entryY=0.5;entryDx=0;entryDy=0;" edge="1" parent="1" source="3FXCNl-wQKIiIdB1zGO7-14" target="3FXCNl-wQKIiIdB1zGO7-16">
          <mxGeometry relative="1" as="geometry" />
        </mxCell>
        <mxCell id="3FXCNl-wQKIiIdB1zGO7-14" value="transform:embed" style="rounded=1;whiteSpace=wrap;html=1;arcSize=50;fillColor=#f8cecc;strokeColor=#b85450;" name="transform" vertex="1" parent="1">
          <mxGeometry x="910" y="490" width="100" height="50" as="geometry" />
        </mxCell>
        <mxCell id="3FXCNl-wQKIiIdB1zGO7-15" style="edgeStyle=orthogonalEdgeStyle;rounded=0;orthogonalLoop=1;jettySize=auto;html=1;exitX=0;exitY=0.5;exitDx=0;exitDy=0;entryX=1;entryY=0.5;entryDx=0;entryDy=0;" edge="1" parent="1" source="3FXCNl-wQKIiIdB1zGO7-16" target="3FXCNl-wQKIiIdB1zGO7-18">
          <mxGeometry relative="1" as="geometry" />
        </mxCell>
        <mxCell id="3FXCNl-wQKIiIdB1zGO7-16" value="data&#xa;Weighted Dataset" style="rectangle;fillColor=#fff2cc;strokeColor=#d6b656;" name="data" vertex="1" parent="1">
          <mxGeometry x="780" y="590" width="100" height="50" as="geometry" />
        </mxCell>
        <mxCell id="3FXCNl-wQKIiIdB1zGO7-17" style="edgeStyle=orthogonalEdgeStyle;rounded=0;orthogonalLoop=1;jettySize=auto;html=1;exitX=0;exitY=0.5;exitDx=0;exitDy=0;entryX=1;entryY=0.5;entryDx=0;entryDy=0;" edge="1" parent="1" source="3FXCNl-wQKIiIdB1zGO7-18" target="3FXCNl-wQKIiIdB1zGO7-20">
          <mxGeometry relative="1" as="geometry" />
        </mxCell>
        <mxCell id="3FXCNl-wQKIiIdB1zGO7-18" value="transform" style="rounded=1;whiteSpace=wrap;html=1;arcSize=50;fillColor=#f8cecc;strokeColor=#b85450;" name="transform" vertex="1" parent="1">
          <mxGeometry x="600" y="590" width="100" height="50" as="geometry" />
        </mxCell>
        <mxCell id="3FXCNl-wQKIiIdB1zGO7-33" style="edgeStyle=orthogonalEdgeStyle;rounded=0;orthogonalLoop=1;jettySize=auto;html=1;exitX=0.5;exitY=1;exitDx=0;exitDy=0;entryX=0.5;entryY=0;entryDx=0;entryDy=0;" edge="1" parent="1" source="3FXCNl-wQKIiIdB1zGO7-20" target="3FXCNl-wQKIiIdB1zGO7-32">
          <mxGeometry relative="1" as="geometry" />
        </mxCell>
        <mxCell id="3FXCNl-wQKIiIdB1zGO7-20" value="data&#xa;ARB Pool" style="rectangle;fillColor=#fff2cc;strokeColor=#d6b656;" name="data" vertex="1" parent="1">
          <mxGeometry x="240" y="590" width="100" height="50" as="geometry" />
        </mxCell>
        <mxCell id="3FXCNl-wQKIiIdB1zGO7-22" style="edgeStyle=orthogonalEdgeStyle;rounded=0;orthogonalLoop=1;jettySize=auto;html=1;exitX=1;exitY=0.5;exitDx=0;exitDy=0;entryX=0;entryY=0.5;entryDx=0;entryDy=0;" edge="1" parent="1" source="3FXCNl-wQKIiIdB1zGO7-23" target="3FXCNl-wQKIiIdB1zGO7-26">
          <mxGeometry relative="1" as="geometry" />
        </mxCell>
        <mxCell id="3FXCNl-wQKIiIdB1zGO7-23" value="data&#xa;Refined ARB Pool" style="rectangle;fillColor=#fff2cc;strokeColor=#d6b656;" name="data" vertex="1" parent="1">
          <mxGeometry x="420" y="720" width="100" height="50" as="geometry" />
        </mxCell>
        <mxCell id="3FXCNl-wQKIiIdB1zGO7-25" style="edgeStyle=orthogonalEdgeStyle;rounded=0;orthogonalLoop=1;jettySize=auto;html=1;exitX=1;exitY=0.5;exitDx=0;exitDy=0;entryX=0;entryY=0.5;entryDx=0;entryDy=0;" edge="1" parent="1" source="3FXCNl-wQKIiIdB1zGO7-26" target="3FXCNl-wQKIiIdB1zGO7-28">
          <mxGeometry relative="1" as="geometry" />
        </mxCell>
        <mxCell id="3FXCNl-wQKIiIdB1zGO7-26" value="transform" style="rounded=1;whiteSpace=wrap;html=1;arcSize=50;fillColor=#f8cecc;strokeColor=#b85450;" name="transform" vertex="1" parent="1">
          <mxGeometry x="780" y="720" width="100" height="50" as="geometry" />
        </mxCell>
        <mxCell id="3FXCNl-wQKIiIdB1zGO7-27" style="edgeStyle=orthogonalEdgeStyle;rounded=0;orthogonalLoop=1;jettySize=auto;html=1;exitX=1;exitY=0.5;exitDx=0;exitDy=0;entryX=0.5;entryY=1;entryDx=0;entryDy=0;" edge="1" parent="1" source="3FXCNl-wQKIiIdB1zGO7-28" target="3FXCNl-wQKIiIdB1zGO7-30">
          <mxGeometry relative="1" as="geometry" />
        </mxCell>
        <mxCell id="3FXCNl-wQKIiIdB1zGO7-28" value="data&#xa;Memory Pool" style="rectangle;fillColor=#fff2cc;strokeColor=#d6b656;" name="data" vertex="1" parent="1">
          <mxGeometry x="960" y="720" width="100" height="50" as="geometry" />
        </mxCell>
        <mxCell id="3FXCNl-wQKIiIdB1zGO7-29" style="edgeStyle=orthogonalEdgeStyle;rounded=0;orthogonalLoop=1;jettySize=auto;html=1;exitX=0.5;exitY=0;exitDx=0;exitDy=0;entryX=0.5;entryY=1;entryDx=0;entryDy=0;" edge="1" parent="1" source="3FXCNl-wQKIiIdB1zGO7-30" target="3FXCNl-wQKIiIdB1zGO7-31">
          <mxGeometry relative="1" as="geometry" />
        </mxCell>
        <mxCell id="3FXCNl-wQKIiIdB1zGO7-30" value="infer:deduce" style="rounded=1;whiteSpace=wrap;html=1;arcSize=50;fillColor=#bac8d3;strokeColor=#23445d;" name="infer:deduce" vertex="1" parent="1">
          <mxGeometry x="1080" y="620" width="100" height="50" as="geometry" />
        </mxCell>
        <mxCell id="3FXCNl-wQKIiIdB1zGO7-31" value="symbol&#xa;Patient Record&#xa;Classification" style="rectangle;fillColor=#dae8fc;strokeColor=#6c8ebf;" name="symbol" vertex="1" parent="1">
          <mxGeometry x="1080" y="500" width="100" height="50" as="geometry" />
        </mxCell>
        <mxCell id="3FXCNl-wQKIiIdB1zGO7-34" style="edgeStyle=orthogonalEdgeStyle;rounded=0;orthogonalLoop=1;jettySize=auto;html=1;exitX=1;exitY=0.5;exitDx=0;exitDy=0;entryX=0;entryY=0.5;entryDx=0;entryDy=0;" edge="1" parent="1" source="3FXCNl-wQKIiIdB1zGO7-32" target="3FXCNl-wQKIiIdB1zGO7-23">
          <mxGeometry relative="1" as="geometry" />
        </mxCell>
        <mxCell id="3FXCNl-wQKIiIdB1zGO7-32" value="transform" style="rounded=1;whiteSpace=wrap;html=1;arcSize=50;fillColor=#f8cecc;strokeColor=#b85450;" name="transform" vertex="1" parent="1">
          <mxGeometry x="240" y="720" width="100" height="50" as="geometry" />
        </mxCell>
        <mxCell id="_hZO69V0MovtOLANK8fd-3" style="edgeStyle=orthogonalEdgeStyle;rounded=0;orthogonalLoop=1;jettySize=auto;html=1;entryX=1;entryY=0.5;entryDx=0;entryDy=0;" edge="1" parent="1" source="_hZO69V0MovtOLANK8fd-1" target="3FXCNl-wQKIiIdB1zGO7-30">
          <mxGeometry relative="1" as="geometry" />
        </mxCell>
        <mxCell id="_hZO69V0MovtOLANK8fd-1" value="model" style="shape=hexagon;perimeter=hexagonPerimeter2;fillColor=#b0e3e6;strokeColor=#0e8088;" name="model" vertex="1" parent="1">
          <mxGeometry x="1250" y="620" width="120" height="50" as="geometry" />
        </mxCell>
        <mxCell id="_hZO69V0MovtOLANK8fd-4" value="replaced infer:deduce with transform" style="text;html=1;align=center;verticalAlign=middle;whiteSpace=wrap;rounded=0;dashed=1;fillColor=#f5f5f5;fontColor=#333333;strokeColor=#666666;strokeWidth=2;" name="text" vertex="1" parent="1">
          <mxGeometry x="100" y="770" width="140" height="40" as="geometry" />
        </mxCell>
        <mxCell id="_hZO69V0MovtOLANK8fd-5" value="added model" style="text;html=1;align=center;verticalAlign=middle;whiteSpace=wrap;rounded=0;dashed=1;fillColor=#f5f5f5;fontColor=#333333;strokeColor=#666666;strokeWidth=2;" name="text" vertex="1" parent="1">
          <mxGeometry x="1170" y="700" width="90" height="32.5" as="geometry" />
        </mxCell>
      </root>
    </mxGraphModel>
  </diagram>
</mxfile>
